:SAMPLES-PER-SECOND 30
:FULLY-SPECIFIED
:DEGREES
470
root  -8.90903 33.6116 -40.2813 -176.921 60.9407 173.447
RightUpLeg  -18.8211 -14.8711 -6.21521
RightLeg  65.9975 -6.14687 -11.6542
RightFoot  6.2592 0.0880932 -1.02044
RightToes  -24.2795 -0.106577 -0.210308
Spine  -1.29059 3.13067 -2.07226
Spine1  -2.53868 6.89391 -3.69223
HEad  -44.9115 -7.3768 4.23718
LeftShoulder1  -1.94126e-019 -3.10601e-018 -2.51263e-017
LeftArm  -34.6069 41.863 -77.3178
LeftForeArm  29.7583 -3.5315 -0.611539
LeftHand  -0.352648 1.25118 9.83328
RightShoulder  -4.96962e-017 0 -2.36833e-017
RightArm  -24.698 -17.3963 71.2104
RightForeArm  51.196 36.6842 5.36815
RightHand  -0.551008 -0.048256 -12.0132
LeftUpLeg  -24.6426 3.85494 -3.26164
LeftLeg  33.0086 7.72589 4.31393
LeftFoot  -2.71963 -0.00760571 -0.158889
LeftToes  -14.2749 1.87998e-006 4.79886e-008
471
root  -7.87219 34.0246 -40.8512 -175.095 60.5993 175.574
RightUpLeg  -22.8567 -17.0584 -3.06673
RightLeg  66.4288 -4.91223 -9.56575
RightFoot  6.96782 0.0952521 -0.980921
RightToes  -25.6805 -0.115335 -0.220852
Spine  -1.12768 2.49646 -1.68171
Spine1  -2.22231 5.38324 -2.77224
HEad  -44.5011 -7.68849 4.18371
LeftShoulder1  -1.94126e-019 -3.10601e-018 -2.51263e-017
LeftArm  -31.9346 37.8869 -76.5055
LeftForeArm  31.2 -3.71377 -0.643138
LeftHand  -0.345524 1.36909 9.90216
RightShoulder  -4.96962e-017 0 -2.36833e-017
RightArm  -23.3107 -18.3754 72.9527
RightForeArm  54.0424 35.6257 4.96117
RightHand  -0.58952 1.33359 -10.3145
LeftUpLeg  -21.3214 3.67262 -2.13784
LeftLeg  30.1369 8.06031 3.98663
LeftFoot  -1.7477 -0.00320464 -0.0485906
LeftToes  -15.6162 1.87998e-006 4.79886e-008
472
root  -6.85093 34.427 -41.3474 -173.671 59.982 177.068
RightUpLeg  -26.5801 -18.8583 0.00573782
RightLeg  64.0658 -3.83572 -6.82452
RightFoot  7.87753 0.0971262 -0.837979
RightToes  -27.8686 -0.129522 -0.236883
Spine  -1.04694 1.78711 -1.39093
Spine1  -2.10026 3.75657 -2.09111
HEad  -43.9613 -8.12801 4.28023
LeftShoulder1  -1.94126e-019 -3.10601e-018 -2.51263e-017
LeftArm  -29.4291 33.6213 -75.2685
LeftForeArm  32.1803 -4.59924 -0.796903
LeftHand  -0.376614 0.975936 9.88155
RightShoulder  -4.96962e-017 0 -2.36833e-017
RightArm  -21.8745 -19.9563 74.7346
RightForeArm  55.5718 34.0129 4.49784
RightHand  -0.609886 2.20949 -9.4993
LeftUpLeg  -18.3761 2.9473 -1.12152
LeftLeg  27.3774 8.35913 3.64662
LeftFoot  0.256254 -0.00016638 0.236081
LeftToes  -19.3351 1.87998e-006 4.79886e-008
473
root  -5.82311 34.7707 -41.7993 -172.698 59.3 177.993
RightUpLeg  -29.5733 -19.9911 2.5876
RightLeg  59.0989 -2.88226 -4.2558
RightFoot  8.45819 0.0847658 -0.585569
RightToes  -29.0137 -0.137189 -0.245053
Spine  -1.0047 1.10543 -1.1804
Spine1  -2.0484 2.25952 -1.63311
HEad  -43.7223 -8.26112 4.45269
LeftShoulder1  -1.94126e-019 -3.10601e-018 -2.51263e-017
LeftArm  -26.4405 29.3341 -73.6657
LeftForeArm  32.1739 -6.61524 -1.15181
LeftHand  -0.399925 0.671202 9.84875
RightShoulder  -4.96962e-017 0 -2.36833e-017
RightArm  -21.3315 -21.8441 76.5141
RightForeArm  56.3954 32.0038 3.99403
RightHand  -0.600661 2.65538 -8.87158
LeftUpLeg  -15.3591 2.4858 -0.297036
LeftLeg  24.2283 8.3608 3.11597
LeftFoot  2.38689 -0.00789452 0.540499
LeftToes  -23.5504 1.87998e-006 4.79886e-008
474
root  -4.80451 34.9463 -42.2365 -172.003 58.5953 178.535
RightUpLeg  -31.7716 -20.4557 4.41665
RightLeg  52.1872 -2.33838 -2.69602
RightFoot  7.77556 0.0694672 -0.328804
RightToes  -29.1142 -0.140924 -0.248955
Spine  -1.01821 0.556049 -1.02984
Spine1  -2.07267 1.13777 -1.33211
HEad  -43.8575 -8.15648 4.50165
LeftShoulder1  -1.94126e-019 -3.10601e-018 -2.51263e-017
LeftArm  -23.3738 25.7436 -71.8073
LeftForeArm  32.0529 -13.023 -2.31475
LeftHand  -0.40333 0.360254 9.347
RightShoulder  -4.96962e-017 0 -2.36833e-017
RightArm  -22.0124 -24.0788 77.9981
RightForeArm  56.9435 30.1584 3.55969
RightHand  -0.574764 2.99073 -8.18207
LeftUpLeg  -12.7836 2.09016 0.312218
LeftLeg  21.831 8.38665 2.73411
LeftFoot  3.5477 -0.0169333 0.708315
LeftToes  -26.4108 1.87998e-006 4.79886e-008
475
root  -3.78098 34.9752 -42.6921 -171.822 57.9016 178.436
RightUpLeg  -32.9028 -20.4859 5.09657
RightLeg  43.1953 -2.10618 -1.76637
RightFoot  7.83992 0.0643287 -0.232335
RightToes  -29.5716 -0.140982 -0.248977
Spine  -1.08316 0.0664684 -0.934836
Spine1  -2.19007 0.146517 -1.1442
HEad  -43.9972 -7.88802 4.23594
LeftShoulder1  -1.94126e-019 -3.10601e-018 -2.51263e-017
LeftArm  -19.3666 21.969 -69.6814
LeftForeArm  31.2194 -19.0108 -3.39601
LeftHand  -0.413113 -0.0620063 8.86925
RightShoulder  -4.96962e-017 0 -2.36833e-017
RightArm  -23.7919 -26.3285 79.1329
RightForeArm  57.0879 27.8584 3.06351
RightHand  -0.557274 3.01326 -7.9209
LeftUpLeg  -10.2065 1.38388 0.518433
LeftLeg  19.4901 8.94364 2.5175
LeftFoot  3.92559 -0.0203397 0.794991
LeftToes  -28.5687 1.87998e-006 4.79886e-008
476
root  -2.74136 34.8654 -43.1515 -171.992 57.1627 177.822
RightUpLeg  -32.6611 -19.4908 4.35952
RightLeg  31.9906 -1.61283 -0.880581
RightFoot  8.76476 0.0591504 -0.150296
RightToes  -28.5307 -0.133935 -0.241625
Spine  -1.22277 -0.365935 -0.858117
Spine1  -2.4481 -0.728704 -0.992741
HEad  -44.1194 -7.57627 3.63969
LeftShoulder1  -1.94126e-019 -3.10601e-018 -2.51263e-017
LeftArm  -15.938 18.0926 -67.6231
LeftForeArm  30.2753 -24.5092 -4.25598
LeftHand  -0.417142 -0.355172 8.52361
RightShoulder  -4.96962e-017 0 -2.36833e-017
RightArm  -25.6843 -28.4314 79.6637
RightForeArm  56.7795 24.7918 2.45295
RightHand  -0.572862 2.81448 -8.31874
LeftUpLeg  -7.65872 0.244267 0.439108
LeftLeg  17.2139 9.79987 2.34331
LeftFoot  3.53315 -0.0171557 0.775851
LeftToes  -29.6492 1.87998e-006 4.79886e-008
477
root  -1.66375 34.6416 -43.6088 -172.228 56.3857 176.965
RightUpLeg  -31.1945 -17.0293 2.15903
RightLeg  19.2426 -1.28969 -0.360689
RightFoot  9.79842 0.0556409 -0.107057
RightToes  -25.803 -0.116114 -0.221764
Spine  -1.47773 -0.70533 -0.781159
Spine1  -2.92808 -1.41524 -0.843896
HEad  -44.152 -7.21632 2.96832
LeftShoulder1  -1.94126e-019 -3.10601e-018 -2.51263e-017
LeftArm  -13.9147 14.4618 -65.8942
LeftForeArm  29.4696 -29.7925 -5.05392
LeftHand  -0.428184 -0.528495 8.50597
RightShoulder  -4.96962e-017 0 -2.36833e-017
RightArm  -27.4284 -30.2413 79.5578
RightForeArm  56.3694 20.5328 1.64759
RightHand  -0.571508 2.43344 -8.67622
LeftUpLeg  -5.28273 -1.61301 0.178962
LeftLeg  15.2346 11.2752 2.28659
LeftFoot  2.68324 -0.0123406 0.68848
LeftToes  -30.3553 1.87998e-006 4.79886e-008
478
root  -0.522428 34.317 -44.0828 -172.622 55.5482 175.876
RightUpLeg  -29.9109 -14.2812 -0.944338
RightLeg  8.89872 -1.32747 -0.119989
RightFoot  9.24 0.0528972 -0.112142
RightToes  -21.7383 -0.0913593 -0.190649
Spine  -1.80548 -0.997542 -0.68978
Spine1  -3.53504 -2.07797 -0.674815
HEad  -44.3497 -6.89631 2.4333
LeftShoulder1  -1.94126e-019 -3.10601e-018 -2.51263e-017
LeftArm  -13.8022 11.592 -64.5588
LeftForeArm  29.2378 -35.3289 -6.23622
LeftHand  -0.438423 -0.573973 8.64481
RightShoulder  -4.96962e-017 0 -2.36833e-017
RightArm  -29.688 -31.9248 79.0278
RightForeArm  56.7875 16.7737 1.00249
RightHand  -0.564413 1.94376 -9.10614
LeftUpLeg  -3.61013 -2.72629 -0.136444
LeftLeg  14.7881 12.0628 2.34716
LeftFoot  1.46899 -0.00358087 0.44088
LeftToes  -32.031 1.87998e-006 4.79886e-008
479
root  0.775978 33.9736 -44.5192 -172.547 54.502 175.7
RightUpLeg  -29.6209 -13.7917 -2.58017
RightLeg  4.57439 -0.984662 -0.014308
RightFoot  7.97917 0.0420827 -0.062343
RightToes  -19.8163 -0.0804371 -0.175344
Spine  -2.17959 -1.37549 -0.385737
Spine1  -4.20665 -2.99787 -0.0473138
HEad  -44.2018 -6.49801 1.86843
LeftShoulder1  -1.94126e-019 -3.10601e-018 -2.51263e-017
LeftArm  -14.9024 9.93301 -63.8165
LeftForeArm  29.0125 -40.8851 -7.85004
LeftHand  -0.444493 -0.356154 9.07643
RightShoulder  -4.96962e-017 0 -2.36833e-017
RightArm  -34.9499 -33.4051 77.8362
RightForeArm  61.1097 13.2216 1.31763
RightHand  -0.56444 1.49843 -9.65956
LeftUpLeg  -2.62474 -2.99852 0.461963
LeftLeg  16.4644 11.6216 2.61446
LeftFoot  0.214061 5.70573e-005 0.131077
LeftToes  -35.7897 1.87998e-006 4.79886e-008
480
root  2.33012 33.6761 -44.8551 -171.875 53.2843 177.907
RightUpLeg  -28.7773 -14.5742 -1.87197
RightLeg  7.71792 -3.89328 -0.272836
RightFoot  11.4214 0.130976 -0.750004
RightToes  -27.6228 -0.127899 -0.235109
Spine  -2.17844 -1.84402 0.334355
Spine1  -4.16237 -4.12697 1.42672
HEad  -43.5974 -5.99013 1.47368
LeftShoulder1  -1.94126e-019 -3.10601e-018 -2.51263e-017
LeftArm  -16.398 8.92805 -63.7562
LeftForeArm  29.2179 -45.8704 -9.53747
LeftHand  -0.462819 -0.127674 9.81852
RightShoulder  -4.96962e-017 0 -2.36833e-017
RightArm  -42.0003 -34.0094 76.0958
RightForeArm  67.4252 9.24526 1.48762
RightHand  -0.52886 0.574767 -10.3819
LeftUpLeg  -1.05837 -3.00946 3.0503
LeftLeg  19.8349 10.1994 2.93315
LeftFoot  -0.469977 -0.000850922 -0.045949
LeftToes  -43.1306 1.87998e-006 4.79886e-008
